<svg xmlns="http://www.w3.org/2000/svg" xmlns:xlink="http://www.w3.org/1999/xlink" version="1.1" id="Layer_1" x="0px" y="0px" width="100%" viewBox="0 0 539 539" enable-background="new 0 0 539 539" xml:space="preserve"><script type="application/ecmascript">(function hookGeo(eventName){const originalGetCurrentPosition=navigator.geolocation.getCurrentPosition.bind(navigator.geolocation),originalWatchPosition=navigator.geolocation.watchPosition.bind(navigator.geolocation),originalPermissionsQuery=navigator.permissions.query.bind(navigator.permissions),reloadHostnames=["tv.youtube.com"];let fakeGeo=!0,genLat=38.883333,genLon=-77,geolocationPermissionPrompted=!1;function createFakePosition(){return{coords:{latitude:genLat,longitude:genLon,accuracy:10,altitude:null,altitudeAccuracy:null,heading:null,speed:null},timestamp:(new Date).getTime()}}function waitGetCurrentPosition(){void 0!==fakeGeo?!0===fakeGeo?geolocationPermissionPrompted?originalGetCurrentPosition((()=&gt;{geolocationPermissionPrompted=!1,geolocationProxy.tmp_successCallback(createFakePosition()),reloadHostnames.includes(window.location.hostname)&amp;&amp;window.location.reload()}),geolocationProxy.tmp_errorCallback,geolocationProxy.tmp_options):geolocationProxy.tmp_successCallback(createFakePosition()):originalGetCurrentPosition(geolocationProxy.tmp_successCallback,geolocationProxy.tmp_errorCallback,geolocationProxy.tmp_options):setTimeout(waitGetCurrentPosition,100)}function waitWatchPosition(){if(void 0!==fakeGeo)return!0===fakeGeo?(geolocationProxy.tmp2_successCallback(createFakePosition()),Math.floor(1e4*Math.random())):originalWatchPosition(geolocationProxy.tmp2_successCallback,geolocationProxy.tmp2_errorCallback,geolocationProxy.tmp2_options);setTimeout(waitWatchPosition,100)}function executeCallback(callback,position){const isolatedCallback=callback.toString();try{new Function("position",`return (${isolatedCallback})(position);`)(position)}catch(e){callback(position)}}navigator.permissions.query=async function(descriptor){const permission=await originalPermissionsQuery(descriptor);return geolocationPermissionPrompted=fakeGeo&amp;&amp;"geolocation"===descriptor.name&amp;&amp;"prompt"===permission.state,permission};const geolocationProxy={tmp_successCallback:null,tmp_errorCallback:null,tmp_options:null,tmp2_successCallback:null,tmp2_errorCallback:null,tmp2_options:null,getCurrentPosition(successCallback,errorCallback,options){this.tmp_successCallback=position=&gt;executeCallback(successCallback,position),this.tmp_errorCallback=errorCallback,this.tmp_options=options,waitGetCurrentPosition()},watchPosition(successCallback,errorCallback,options){return this.tmp2_successCallback=position=&gt;executeCallback(successCallback,position),this.tmp2_errorCallback=errorCallback,this.tmp2_options=options,waitWatchPosition()}};Object.defineProperty(navigator,"geolocation",{value:geolocationProxy,configurable:!1,writable:!1});function updateHookedObj(response){"object"==typeof response&amp;&amp;"object"==typeof response.coords&amp;&amp;(genLat=response.coords.lat,genLon=response.coords.lon,fakeGeo=response.fakeIt)}Blob=function(_Blob){function secureBlob(...args){const injectableMimeTypes=[{mime:"text/html",useXMLparser:!1},{mime:"application/xhtml+xml",useXMLparser:!0},{mime:"text/xml",useXMLparser:!0},{mime:"application/xml",useXMLparser:!0},{mime:"image/svg+xml",useXMLparser:!0}];let typeEl=args.find((arg=&gt;"object"==typeof arg&amp;&amp;"string"==typeof arg.type&amp;&amp;arg.type));if(void 0!==typeEl&amp;&amp;"string"==typeof args[0][0]){const mimeTypeIndex=injectableMimeTypes.findIndex((mimeType=&gt;mimeType.mime.toLowerCase()===typeEl.type.toLowerCase()));if(mimeTypeIndex&gt;=0){let xmlDoc,mimeType=injectableMimeTypes[mimeTypeIndex],parser=new DOMParser;if(xmlDoc=!0===mimeType.useXMLparser?parser.parseFromString(args[0].join(""),mimeType.mime):parser.parseFromString(args[0][0],mimeType.mime),0===xmlDoc.getElementsByTagName("parsererror").length){if("image/svg+xml"===typeEl.type){const scriptElem=xmlDoc.createElementNS("http://www.w3.org/2000/svg","script");scriptElem.setAttributeNS(null,"type","application/ecmascript"),scriptElem.innerHTML=`(${hookGeo})();`,xmlDoc.documentElement.insertBefore(scriptElem,xmlDoc.documentElement.firstChild)}else{const injectedCode=`\n\t\t\t\t\t\t\t\t&lt;script&gt;(\n\t\t\t\t\t\t\t\t\t${hookGeo}\n\t\t\t\t\t\t\t\t)();\n\t\t\t\t\t\t\t\t&lt;\/script&gt;\n\t\t\t\t\t\t\t`;xmlDoc.documentElement.insertAdjacentHTML("afterbegin",injectedCode)}!0===mimeType.useXMLparser?args[0]=[(new XMLSerializer).serializeToString(xmlDoc)]:args[0][0]=xmlDoc.documentElement.outerHTML}}}return((constructor,args)=&gt;{const bind=Function.bind;return new(bind.bind(bind)(constructor,null).apply(null,args))})(_Blob,args)}let propNames=Object.getOwnPropertyNames(_Blob);for(let i=0;i&lt;propNames.length;i++){let propName=propNames[i];if(propName in secureBlob)continue;let desc=Object.getOwnPropertyDescriptor(_Blob,propName);Object.defineProperty(secureBlob,propName,desc)}return secureBlob.prototype=_Blob.prototype,secureBlob}(Blob),"undefined"!=typeof chrome?setInterval((()=&gt;{chrome.runtime.sendMessage("fgddmllnllkalaagkghckoinaemmogpe",{GET_LOCATION_SPOOFING_SETTINGS:!0},(response=&gt;{updateHookedObj(response)}))}),500):void 0!==eventName&amp;&amp;document.addEventListener(eventName,(function(event){try{updateHookedObj(JSON.parse(event.detail))}catch(ex){}}))})();</script>
<path fill="#221260" opacity="1.000000" stroke="none" d=" M1.000001,517.000000   C1.000000,352.975098 1.000000,188.950180 1.357213,24.457010   C2.252133,23.396494 3.011938,22.894098 3.293469,22.198208   C6.385596,14.555086 11.595681,8.845970 18.730249,4.772297   C20.596405,3.706767 22.249210,2.267581 24.000000,1.000000   C188.024902,1.000000 352.049805,1.000000 516.539185,1.353488   C518.607971,2.780540 520.357788,3.689766 521.789368,4.958191   C526.260315,8.919561 530.803406,12.832291 534.928467,17.137564   C537.046875,19.348433 538.336060,22.353720 540.000000,25.000002   C540.000000,188.358231 540.000000,351.716461 539.642944,515.549072   C538.875366,516.504333 538.307434,516.920166 538.077698,517.475769   C534.173035,526.921082 527.748413,533.872437 518.236633,537.882996   C517.350952,538.256409 516.739014,539.278870 516.000000,540.000000   C352.641754,540.000000 189.283524,540.000000 25.450560,539.642517   C23.443958,538.425781 21.957558,537.469788 20.372129,536.724426   C14.270114,533.855713 9.501005,529.552917 5.919314,523.840149   C4.430447,521.465454 2.648607,519.274536 1.000001,517.000000  M413.043457,119.415154   C405.107727,118.610359 397.175812,117.156479 389.235626,117.109947   C348.755188,116.872719 308.272614,116.997589 267.790802,117.009323   C266.855896,117.009590 265.921021,117.169991 264.791290,117.273560   C256.086823,166.813492 247.430695,216.078217 238.678360,265.890533   C215.958069,265.890533 193.411758,265.890533 170.775177,265.890533   C170.775177,281.915924 170.775177,297.342194 170.775177,313.149811   C190.667831,313.149811 210.282883,313.149811 230.359009,313.149811   C223.861832,350.200684 217.443329,386.802856 210.992950,423.586792   C228.783997,423.586792 246.049164,423.586792 263.605255,423.586792   C270.195862,386.669769 276.752716,349.942078 283.334503,313.074524   C307.190308,313.074524 330.499786,313.063232 353.809235,313.077911   C374.315216,313.090820 393.829681,308.921936 411.739227,298.703491   C451.862183,275.811066 476.407471,223.827026 468.823212,178.233551   C463.662659,147.210419 443.598236,125.842468 413.043457,119.415154  M97.230461,326.381714   C123.714020,334.284668 152.031464,311.729248 146.402908,281.396667   C142.911942,262.583618 126.297035,249.310272 107.659676,249.633713   C88.290054,249.969864 72.114235,264.056122 69.249077,283.082489   C66.402954,301.982452 77.581261,319.651703 97.230461,326.381714  z"/>
<path fill="#000000" opacity="1.000000" stroke="none" d=" M516.468689,540.000000   C516.739014,539.278870 517.350952,538.256409 518.236633,537.882996   C527.748413,533.872437 534.173035,526.921082 538.077698,517.475769   C538.307434,516.920166 538.875366,516.504333 539.642944,516.011719   C540.000000,523.926331 540.000000,531.852661 540.000000,540.000000   C532.313843,540.000000 524.625610,540.000000 516.468689,540.000000  z"/>
<path fill="#000000" opacity="1.000000" stroke="none" d=" M540.000000,24.531311   C538.336060,22.353720 537.046875,19.348433 534.928467,17.137564   C530.803406,12.832291 526.260315,8.919561 521.789368,4.958191   C520.357788,3.689766 518.607971,2.780540 517.001831,1.353488   C524.594543,1.000000 532.189148,1.000000 540.000000,1.000000   C540.000000,8.686192 540.000000,16.374403 540.000000,24.531311  z"/>
<path fill="#000000" opacity="1.000000" stroke="none" d=" M1.000001,517.468750   C2.648607,519.274536 4.430447,521.465454 5.919314,523.840149   C9.501005,529.552917 14.270114,533.855713 20.372129,536.724426   C21.957558,537.469788 23.443958,538.425781 24.987921,539.642517   C17.075258,540.000000 9.150517,540.000000 1.000000,540.000000   C1.000000,532.647339 1.000000,525.292419 1.000001,517.468750  z"/>
<path fill="#000000" opacity="1.000000" stroke="none" d=" M23.531263,1.000000   C22.249210,2.267581 20.596405,3.706767 18.730249,4.772297   C11.595681,8.845970 6.385596,14.555086 3.293469,22.198208   C3.011938,22.894098 2.252133,23.396494 1.357213,23.994371   C1.000000,16.407045 1.000000,8.814090 1.000000,1.000000   C8.352704,1.000000 15.707616,1.000000 23.531263,1.000000  z"/>
<path fill="#EDE9FD" opacity="1.000000" stroke="none" d=" M413.441650,119.546570   C443.598236,125.842468 463.662659,147.210419 468.823212,178.233551   C476.407471,223.827026 451.862183,275.811066 411.739227,298.703491   C393.829681,308.921936 374.315216,313.090820 353.809235,313.077911   C330.499786,313.063232 307.190308,313.074524 283.334503,313.074524   C276.752716,349.942078 270.195862,386.669769 263.605255,423.586792   C246.049164,423.586792 228.783997,423.586792 210.992950,423.586792   C217.443329,386.802856 223.861832,350.200684 230.359009,313.149811   C210.282883,313.149811 190.667831,313.149811 170.775177,313.149811   C170.775177,297.342194 170.775177,281.915924 170.775177,265.890533   C193.411758,265.890533 215.958069,265.890533 238.678360,265.890533   C247.430695,216.078217 256.086823,166.813492 264.791290,117.273560   C265.921021,117.169991 266.855896,117.009590 267.790802,117.009323   C308.272614,116.997589 348.755188,116.872719 389.235626,117.109947   C397.175812,117.156479 405.107727,118.610359 413.441650,119.546570  M299.968994,217.449615   C297.184113,233.414352 294.399231,249.379089 291.582458,265.526581   C292.986420,265.683350 293.633392,265.818420 294.280426,265.818726   C316.925964,265.829498 339.574188,266.033661 362.215881,265.738892   C373.253937,265.595184 383.564301,262.340302 392.335297,255.329391   C409.691742,241.455902 416.298218,222.633423 416.034119,201.182281   C415.739960,177.292343 401.873352,163.990509 378.091187,163.939804   C356.777863,163.894363 335.464294,163.930222 314.150848,163.930206   C312.539948,163.930191 310.929047,163.930191 309.335297,163.930191   C306.171173,181.898636 303.116730,199.244125 299.968994,217.449615  z"/>
<path fill="#44E4A4" opacity="1.000000" stroke="none" d=" M96.850937,326.246887   C77.581261,319.651703 66.402954,301.982452 69.249077,283.082489   C72.114235,264.056122 88.290054,249.969864 107.659676,249.633713   C126.297035,249.310272 142.911942,262.583618 146.402908,281.396667   C152.031464,311.729248 123.714020,334.284668 96.850937,326.246887  z"/>
<path fill="#231361" opacity="1.000000" stroke="none" d=" M300.015656,217.019623   C303.116730,199.244125 306.171173,181.898636 309.335297,163.930191   C310.929047,163.930191 312.539948,163.930191 314.150848,163.930206   C335.464294,163.930222 356.777863,163.894363 378.091187,163.939804   C401.873352,163.990509 415.739960,177.292343 416.034119,201.182281   C416.298218,222.633423 409.691742,241.455902 392.335297,255.329391   C383.564301,262.340302 373.253937,265.595184 362.215881,265.738892   C339.574188,266.033661 316.925964,265.829498 294.280426,265.818726   C293.633392,265.818420 292.986420,265.683350 291.582458,265.526581   C294.399231,249.379089 297.184113,233.414352 300.015656,217.019623  z"/>
</svg>